<svg width="1249" height="1239" viewBox="0 0 1249 1239" fill="none" xmlns="http://www.w3.org/2000/svg">
<path d="M924.36 445.891L866.736 431.411C864.298 413.896 862.258 399.316 858.476 383.692L908.088 347.915C898.733 318.209 890.024 297.41 873.355 274.72L821.504 284.92C811.452 269.296 803.192 257.055 792.393 243.123L822.499 197.892C803.092 173.709 787.467 158.035 766.667 139.723L717.852 168.584C703.023 157.288 689.637 148.232 675.057 139.723L686.104 81.4058C658.885 66.2791 638.085 58.7654 615.444 53.9388L582.153 96.5823C563.443 91.8054 548.316 88.6209 530.8 86.1827L521.395 36.5729C494.972 33.3883 469.942 34.1845 445.709 36.5729L433.02 86.1827C415.504 87.8247 401.123 90.1136 384.702 94.1939L342.853 53.1427C315.634 61.6515 294.834 71.0559 272.989 82.1522L279.408 137.285C263.783 146.54 250.845 155.049 236.912 165.847L188.096 139.723C163.913 161.269 149.084 176.893 131.568 199.484L158.588 243.72C147.79 257.652 140.376 269.097 132.961 281.736L78.5726 273.724C61.9524 303.431 54.538 324.23 46.427 348.91L88.2759 383.692C84.1955 399.316 81.7573 412.403 79.3687 427.53L33.7379 445.095C31.2996 475.597 31.2996 499.382 34.5341 524.062L84.1458 539.089C87.3802 556.605 89.8185 570.338 93.8492 586.36L49.6614 620.296C58.7179 652.391 66.7792 673.19 79.3687 691.501L136.196 684.286C145.402 699.115 153.712 711.505 164.51 725.487L131.568 772.509C152.368 798.234 167.495 813.361 188.295 830.13L238.703 801.27C252.636 812.018 265.624 820.576 280.204 829.085L275.377 881.83C304.189 896.956 325.835 904.47 348.476 911.287L381.069 870.286C397.69 875.062 412.27 878.247 429.785 881.432L442.474 929.25C471.286 933.33 496.415 932.534 521.395 929.25L534.035 881.432C549.062 879.043 561.751 876.605 576.132 872.525L615.444 912.879C644.255 904.371 665.901 895.016 686.9 883.024L677.296 826.299C692.921 817.093 705.71 809.38 719.643 797.836L770.897 846.053L740.543 875.61L809.213 939.401L932.769 807.788L874.151 739.021L842.353 769.872L794.782 720.262C802.196 707.623 807.819 698.915 814.438 686.227L873.355 691.501C890.024 664.98 898.733 644.18 905.848 618.704L861.661 583.176C866.488 567.153 868.926 554.465 871.364 537.497L925.753 519.186C929.833 491.868 929.037 468.083 924.36 445.891Z" fill="url(#paint0_linear_4_19)"/>
<path d="M914.159 457.733L858.974 442.656C856.535 421.31 852.455 400.909 846.036 380.507L889.427 344.979C882.013 322.787 878.779 314.676 866.488 291.687L809.661 298.206C795.727 274.72 781.794 254.318 765.124 234.713L796.325 195.553C781.794 178.535 775.375 171.718 761.442 157.736L718.847 183.86C692.424 162.264 669.086 147.834 642.663 135.693L653.461 88.173C635.248 79.0173 630.422 77.3753 619.623 73.2951L585.537 116.735C556.726 107.529 532.542 102.703 508.358 100.314L495.022 47.5696H467.007L451.979 99.4683C422.371 101.907 398.187 106.733 371.764 115.093L333.249 73.2951C317.027 79.0173 304.836 84.5406 290.903 91.6064L294.933 142.709C266.918 157.736 246.118 172.863 224.521 192.368L187.698 167.688C172.571 182.218 165.754 189.731 152.567 205.256L179.985 248.696C163.365 269.296 151.771 287.159 140.973 304.227L88.276 296.614C77.7266 317.91 74.5419 326.817 67.9735 344.979L111.365 381.303C104.946 401.705 100.915 421.31 97.6808 440.268L48.0691 456.091C46.427 478.284 46.427 490.425 48.0691 510.03L101.711 526.65C105.742 553.967 110.569 576.956 118.68 599.945L75.3381 627.262C83.3994 648.659 86.6339 657.416 93.8492 674.434L142.665 667.219C161.773 702.996 182.573 732.702 209.792 760.766L194.764 801.668C204.766 810.823 206.359 811.62 212.031 815.7L240.893 791.716C267.316 812.416 288.663 826.299 314.29 839.385L306.179 875.61C325.039 884.119 329.069 885.761 339.071 888.995L374.202 848.441C399.929 857.647 421.525 861.727 448.744 864.961L460.587 912.78H503.929L518.36 864.961C541.549 861.727 561.552 856.95 583.945 849.237L620.768 888.995C636.293 883.273 645.449 879.64 660.477 871.928L652.366 821.621C681.874 806.494 708.297 786.889 734.322 761.164L790.104 819.482L827.724 776.838L774.43 722.501C788.363 703.593 796.524 689.262 808.018 668.015L865.691 674.434C876.489 654.829 879.724 645.574 886.342 625.173L839.915 588.003C847.031 565.312 850.265 546.404 853.5 525.804L915.004 509.234C916.597 487.041 916.597 478.284 914.159 457.733Z" fill="url(#paint1_linear_4_19)"/>
<path d="M480.94 832.568C675.555 832.568 830.859 673.638 830.859 482.016C830.859 290.394 672.271 131.463 480.94 131.463C286.374 131.463 129.329 284.92 129.329 479.13C129.329 671.548 286.374 832.568 480.94 832.568Z" fill="url(#paint2_linear_4_19)"/>
<path d="M480.94 827.045C663.114 827.045 818.916 673.588 818.916 486.046C818.916 300.594 665.553 140.52 478.501 140.52C289.708 140.52 140.973 290.692 140.973 479.926C140.973 668.314 292.147 827.045 480.94 827.045Z" fill="url(#paint3_linear_4_19)"/>
<path d="M480.143 812.117C650.923 812.117 789.308 666.323 778.809 478.085C769.205 300.594 624.052 184.656 478.501 184.656C310.061 184.656 180.782 329.056 180.782 484.205C180.782 641.742 311.653 799.677 480.143 812.117Z" fill="#F8FFFE"/>
<path d="M951.181 823.114L820.906 951.791L1033.09 1160.93L1169.43 1024.59L951.181 823.114Z" fill="url(#paint4_linear_4_19)"/>
<path d="M1180.43 1042.05L1048.16 1177.95L1077.77 1207.6H1208.05L1217.1 1076.44L1180.43 1042.05Z" fill="url(#paint5_linear_4_19)"/>
<path d="M1171.82 1075L1081 1168.58L1101.33 1189H1190.78L1197 1098.68L1171.82 1075Z" fill="#B98A3C"/>
<path d="M880.222 886.756L894.802 872.823L1107.78 1081.36L1093.15 1095.79L880.222 886.756Z" fill="url(#paint6_linear_4_19)"/>
<path d="M765 877.675L870.749 778L916 827.477L814.297 934L765 877.675Z" fill="url(#paint7_linear_4_19)"/>
<path d="M812 828.915L863.376 878L886 857.726L833.269 808L812 828.915Z" fill="url(#paint8_linear_4_19)"/>
<path d="M662.119 405.337C656.447 400.909 650.824 398.47 650.824 392.748C645.847 309.65 581.755 232.225 490.991 232.225C403.611 232.225 334.045 298.405 324.043 381.503C322.849 391.554 319.615 391.554 311.454 397.674L268.112 421.957C254.876 429.57 255.672 443.9 272.342 447.085C293.639 451.165 311.852 449.523 337.479 449.523L343.152 460.918L341.957 475.597C329.268 491.221 316.579 515.902 310.956 534.81C307.722 548.195 316.579 553.022 327.079 553.022H339.718C344.993 553.022 343.749 557.102 342.156 563.919C339.718 573.97 339.718 581.186 347.182 585.266C351.213 587.704 353.651 591.734 350.417 598.153C345.59 607.409 344.396 620.047 349.173 637.961C355.592 661.347 393.062 657.665 421.525 646.42C434.164 641.145 438.593 650.798 444.913 680.057C416.897 719.267 403.462 742.256 399.431 770.17L409.433 773.007C450.386 681.848 506.318 608.603 603.65 580.787C601.212 568.547 601.212 553.868 602.854 546.205C604.446 537.796 632.512 502.019 632.512 467.287V446.687H670.33C671.922 431.61 671.126 411.059 662.119 405.337ZM640.822 425.34H289.509C284.682 425.34 284.682 423.748 289.509 421.31L337.479 394.987C343.152 391.753 341.509 386.926 343.152 376.875C352.009 320.15 397.69 267.853 444.913 254.418C416.897 277.307 401.024 310.447 398.635 347.617C398.187 352.443 401.869 352.841 402.666 348.413C418.888 291.687 457.403 253.323 513.334 253.323C581.755 253.323 637.289 323.384 637.289 391.753V406.78C637.289 412.453 641.319 414.891 645.449 416.533C651.122 418.921 649.082 425.34 640.822 425.34Z" fill="url(#paint9_linear_4_19)"/>
<path d="M508.756 533.616C517.166 541.279 533.836 539.686 546.077 508.189C559.114 474.253 553.889 453.852 530.502 451.464C516.369 449.822 508.159 458.33 506.965 469.725C506.119 476.244 510.995 474.253 512.19 471.815C517.962 460.918 537.07 459.326 542.743 470.521C549.162 483.807 541.947 503.412 533.836 521.027C527.018 536.651 516.568 532.223 510.995 531.028C506.119 529.784 503.73 528.59 508.756 533.616Z" fill="#F8FFFE"/>
<path d="M480.94 149.625V184.656C632.064 184.656 773.434 309.252 773.434 478.732C773.434 546.205 751.191 608.205 715.612 657.416H754.525C788.562 605.567 809.213 543.17 809.213 477.488C809.213 302.236 660.875 149.625 480.94 149.625Z" fill="url(#paint10_linear_4_19)"/>
<path d="M672.718 700.657C619.126 745.938 560.507 780.719 480.94 780.719V685.53C518.36 636.319 567.175 602.383 643.459 580.19C651.57 577.752 649.53 585.365 645.051 598.153C635.049 627.063 635.049 648.062 657.641 670.254C670.33 682.893 672.718 690.108 677.197 700.657H672.718Z" fill="url(#paint11_linear_4_19)"/>
<defs>
<linearGradient id="paint0_linear_4_19" x1="31.4839" y1="484.051" x2="929.102" y2="484.051" gradientUnits="userSpaceOnUse">
<stop stop-color="#B98A3C"/>
<stop offset="1" stop-color="#CDA759"/>
</linearGradient>
<linearGradient id="paint1_linear_4_19" x1="47.1071" y1="480.097" x2="916.343" y2="480.097" gradientUnits="userSpaceOnUse">
<stop stop-color="#CDA759"/>
<stop offset="1" stop-color="#E7C268"/>
</linearGradient>
<linearGradient id="paint2_linear_4_19" x1="129.31" y1="482.022" x2="830.864" y2="482.022" gradientUnits="userSpaceOnUse">
<stop stop-color="#006A72"/>
<stop offset="1" stop-color="#219DA4"/>
</linearGradient>
<linearGradient id="paint3_linear_4_19" x1="140.959" y1="483.792" x2="818.916" y2="483.792" gradientUnits="userSpaceOnUse">
<stop stop-color="#006A72"/>
<stop offset="1" stop-color="#219DA4"/>
</linearGradient>
<linearGradient id="paint4_linear_4_19" x1="820.911" y1="992.016" x2="1169.43" y2="992.016" gradientUnits="userSpaceOnUse">
<stop stop-color="#00595D"/>
<stop offset="1" stop-color="#006A72"/>
</linearGradient>
<linearGradient id="paint5_linear_4_19" x1="1048.17" y1="1124.82" x2="1217.12" y2="1124.82" gradientUnits="userSpaceOnUse">
<stop stop-color="#006A72"/>
<stop offset="1" stop-color="#00595D"/>
</linearGradient>
<linearGradient id="paint6_linear_4_19" x1="880.207" y1="984.318" x2="1107.77" y2="984.318" gradientUnits="userSpaceOnUse">
<stop stop-color="#CDA759"/>
<stop offset="1" stop-color="#E7C268"/>
</linearGradient>
<linearGradient id="paint7_linear_4_19" x1="765.015" y1="855.985" x2="916.015" y2="855.985" gradientUnits="userSpaceOnUse">
<stop stop-color="#006A72"/>
<stop offset="1" stop-color="#00595D"/>
</linearGradient>
<linearGradient id="paint8_linear_4_19" x1="812.018" y1="843.011" x2="886" y2="843.011" gradientUnits="userSpaceOnUse">
<stop stop-color="#CDA759"/>
<stop offset="1" stop-color="#E7C268"/>
</linearGradient>
<linearGradient id="paint9_linear_4_19" x1="259.209" y1="502.561" x2="671.111" y2="502.561" gradientUnits="userSpaceOnUse">
<stop stop-color="#00595D"/>
<stop offset="0.9947" stop-color="#008288"/>
</linearGradient>
<linearGradient id="paint10_linear_4_19" x1="480.942" y1="403.481" x2="809.223" y2="403.481" gradientUnits="userSpaceOnUse">
<stop stop-color="#008288"/>
<stop offset="1" stop-color="#006A72"/>
</linearGradient>
<linearGradient id="paint11_linear_4_19" x1="480.942" y1="680.455" x2="677.257" y2="680.455" gradientUnits="userSpaceOnUse">
<stop stop-color="#008288"/>
<stop offset="1" stop-color="#219DA4"/>
</linearGradient>
</defs>
</svg>
